HIERARCHY
ROOT Hips
{
	OFFSET 0.000000 0.000000 0.000000 
	CHANNELS 6 Xposition Yposition Zposition Zrotation Yrotation Xrotation
	JOINT LeftUpLeg
	{
		OFFSET 1.363060 -1.794630 0.839290 
		CHANNELS 3 Zrotation Yrotation Xrotation
		JOINT LeftLeg
		{
			OFFSET 2.448110 -6.726130 0.000000 
			CHANNELS 3 Zrotation Yrotation Xrotation
			JOINT LeftFoot
			{
				OFFSET 2.562200 -7.039590 0.000000 
				CHANNELS 3 Zrotation Yrotation Xrotation
				JOINT LeftToeBase
				{
					OFFSET 0.157640 -0.433110 2.322550 
					CHANNELS 3 Zrotation Yrotation Xrotation
					End Site
					{
						OFFSET 0.000000 0.000000 0.000000 
					}
				}
			}
		}
	}
	JOINT RightUpLeg
	{
		OFFSET -1.305520 -1.794630 0.839290 
		CHANNELS 3 Zrotation Yrotation Xrotation
		JOINT RightLeg
		{
			OFFSET -2.542530 -6.985550 0.000000 
			CHANNELS 3 Zrotation Yrotation Xrotation
			JOINT RightFoot
			{
				OFFSET -2.568260 -7.056230 0.000000 
				CHANNELS 3 Zrotation Yrotation Xrotation
				JOINT RightToeBase
				{
					OFFSET -0.164730 -0.452590 2.363150 
					CHANNELS 3 Zrotation Yrotation Xrotation
					End Site
					{
						OFFSET 0.000000 0.000000 0.000000 
					}
				}
			}
		}
	}
	JOINT Spine
	{
		OFFSET 0.028270 2.035590 -0.193380 
		CHANNELS 3 Zrotation Yrotation Xrotation
		JOINT Spine1
		{
			OFFSET 0.056720 2.048850 -0.042750 
			CHANNELS 3 Zrotation Yrotation Xrotation
			JOINT Neck1
			{
				OFFSET -0.054170 1.746240 0.172020 
				CHANNELS 3 Zrotation Yrotation Xrotation
				JOINT Head
				{
					OFFSET 0.104070 1.761360 -0.123970 
					CHANNELS 3 Zrotation Yrotation Xrotation
					End Site
					{
						OFFSET 0.000000 0.000000 0.000000 
					}
				}
			}
			JOINT LeftArm
			{
				OFFSET 3.362410 1.200890 -0.311210 
				CHANNELS 3 Zrotation Yrotation Xrotation
				JOINT LeftForeArm
				{
					OFFSET 4.983000 -0.000000 -0.000000 
					CHANNELS 3 Zrotation Yrotation Xrotation
					JOINT LeftHand
					{
						OFFSET 3.483560 -0.000000 -0.000000 
						CHANNELS 3 Zrotation Yrotation Xrotation
						JOINT LeftHandIndex1
						{
							OFFSET 0.715260 -0.000000 -0.000000 
							CHANNELS 3 Zrotation Yrotation Xrotation
							End Site
							{
								OFFSET 0.000000 0.000000 0.000000 
							}
						}
					}
				}
			}
			JOINT RightArm
			{
				OFFSET -3.136600 1.374050 -0.404650 
				CHANNELS 3 Zrotation Yrotation Xrotation
				JOINT RightForeArm
				{
					OFFSET -5.241900 -0.000000 -0.000000 
					CHANNELS 3 Zrotation Yrotation Xrotation
					JOINT RightHand
					{
						OFFSET -3.444170 -0.000000 -0.000000 
						CHANNELS 3 Zrotation Yrotation Xrotation
						JOINT RightHandIndex1
						{
							OFFSET -0.622530 -0.000000 -0.000000 
							CHANNELS 3 Zrotation Yrotation Xrotation
							End Site
							{
								OFFSET 0.000000 0.000000 0.000000 
							}
						}
					}
				}
			}
		}
	}
}
MOTION
Frames: 10
Frame Time: 0.041667
8.754300 17.277126 19.260314 -178.536715 -73.241635 -178.884789 1.005927 0.993247 -15.541216 3.053513 12.389572 35.621901 1.363388 -1.830803 -5.312930 3.007000 -10.706400 -31.295900 -0.281693 7.446998 -15.099647 -2.624547 -11.339836 31.495334 3.690096 -17.619010 -5.090362 -0.256400 3.257700 -8.997100 0.559512 -5.249213 -2.433093 2.839898 -2.303842 -4.787902 18.380925 -28.267404 -4.709433 9.002700 -14.173300 3.647800 -75.602778 10.726346 20.527987 42.533570 -51.672040 -24.597765 0.875382 -1.478251 7.625578 -7.125000 0.000000 0.000000 80.505853 -6.583452 38.448910 -90.075311 59.258939 -59.278344 0.077072 -0.454176 -15.048130 7.125000 0.000000 0.000000 
8.749011 17.314959 19.297333 -176.647152 -72.684568 179.145081 1.335590 0.546610 -14.979481 3.033741 12.373371 35.555265 1.109323 -0.877329 -5.686064 2.735200 -10.253600 -29.801800 0.341899 7.721072 -14.559934 -2.424942 -11.063307 30.521567 3.777360 -17.990604 -4.501024 -0.222600 3.036800 -8.381200 0.602122 -5.426183 -2.426043 2.741150 -2.398125 -4.806884 18.067904 -27.976607 -4.218580 8.878200 -14.049400 3.680100 -75.754786 10.839853 22.084650 42.332025 -51.596064 -24.380113 0.854649 -1.484309 8.025760 -7.125000 0.000000 0.000000 80.776822 -7.056034 37.243657 -95.092549 59.061507 -63.723590 0.064231 -0.460442 -14.890583 7.125000 0.000000 0.000000 
8.745147 17.355742 19.349913 -175.967732 -72.241064 178.663376 1.306068 0.072771 -14.719401 2.953751 12.314505 35.320189 0.794559 0.218779 -5.801848 2.375900 -9.608700 -27.718500 0.500081 7.491577 -14.469905 -2.245589 -10.770511 29.552644 3.744994 -17.893957 -3.649460 -0.189500 2.803400 -7.731900 0.676720 -5.783255 -2.448661 2.942412 -2.571179 -4.736345 17.982535 -27.598266 -3.721198 8.916100 -13.868600 3.880000 -76.342995 10.955874 23.585344 42.544377 -51.716146 -24.497053 0.841295 -1.478363 8.638012 -7.125000 0.000000 0.000000 80.421751 -7.461048 36.921228 -99.366789 58.753156 -67.530590 0.090527 -0.464899 -12.021506 7.125000 0.000000 0.000000 
8.747893 17.398660 19.393950 -176.423082 -71.634049 179.592504 0.985050 -0.273708 -14.744895 2.848276 12.238592 35.016038 0.511545 1.187982 -5.942375 1.932900 -8.724900 -24.938600 0.252498 7.542323 -14.706081 -2.080369 -10.480630 28.619705 3.695045 -17.709255 -3.000174 -0.149000 2.487100 -6.853900 0.741804 -6.068782 -2.457248 3.357672 -2.711079 -4.326740 17.906090 -27.228981 -3.315413 8.937700 -13.676700 4.036900 -76.902934 10.835290 25.171985 43.001684 -51.979648 -24.855628 0.831496 -1.465778 9.142106 -7.125000 0.000000 0.000000 79.931200 -7.503272 36.238170 -104.177126 58.285688 -71.842308 0.118497 -0.445092 -11.220975 7.125000 0.000000 0.000000 
8.749215 17.437917 19.425681 -175.744544 -70.903105 179.250147 1.021586 -0.555683 -14.634660 2.815101 12.214632 34.921774 0.307569 1.908969 -6.263867 1.631400 -8.051900 -22.871800 0.427836 8.086951 -14.602127 -1.896375 -10.186614 27.657392 3.722329 -17.824410 -2.759435 -0.091500 1.950500 -5.368900 0.782122 -6.233788 -2.451433 3.428968 -2.802346 -3.994239 17.691488 -26.783501 -2.942712 8.868900 -13.458200 4.030800 -77.043699 10.456343 27.137662 43.103013 -52.070340 -24.925868 0.823683 -1.458799 8.940602 -7.125000 0.000000 0.000000 79.568846 -7.412867 35.448253 -108.528123 57.696842 -75.712695 0.142937 -0.435842 -10.451081 7.125000 0.000000 0.000000 
8.756436 17.463139 19.458531 -174.523571 -70.237328 178.183730 1.248844 -0.872670 -14.455968 2.837991 12.239660 35.016618 0.197076 2.321531 -6.645525 1.390300 -7.460100 -21.085900 0.840690 8.476063 -14.324470 -1.706269 -9.867326 26.619368 3.804023 -18.179770 -2.391842 -0.096300 2.000900 -5.508200 0.807002 -6.523254 -2.492984 3.260295 -2.944373 -4.107510 17.638565 -26.221711 -2.458466 8.928200 -13.201300 4.155900 -77.037842 10.274448 29.339742 43.490573 -52.250625 -25.175145 0.820408 -1.452988 8.298192 -7.125000 0.000000 0.000000 79.018671 -7.194843 34.824361 -112.309390 57.022203 -79.062512 0.164295 -0.427148 -10.203999 7.125000 0.000000 0.000000 
8.837492 17.443409 19.585455 -173.753361 -69.985849 175.876975 1.021403 -2.388160 -12.989327 2.862707 12.378469 35.377574 -0.063089 3.196978 -7.108195 1.061200 -6.549700 -18.388000 0.917231 7.748573 -12.886513 -1.526539 -9.504332 25.504679 3.712891 -17.912022 -1.526090 -0.097500 2.013400 -5.542700 0.887170 -6.812868 -2.528593 3.726644 -3.059806 -5.717745 17.349564 -25.951484 -2.124932 8.742800 -13.069500 4.350700 -77.679870 9.933806 31.878219 44.416606 -52.546647 -25.749053 0.803481 -1.427673 7.795960 -7.125000 0.000000 0.000000 77.710504 -6.853609 33.312477 -115.778608 56.231164 -82.220461 0.184929 -0.387971 -9.312728 7.125000 0.000000 0.000000 
8.911429 17.425306 19.685326 -173.068858 -69.603196 173.946182 0.828750 -3.389124 -11.794187 2.885640 12.480386 35.649248 -0.289332 3.963039 -7.466491 0.889700 -6.012200 -16.819800 0.995323 7.246270 -11.668931 -1.345310 -9.153970 24.426470 3.581169 -17.448686 -1.095131 -0.051000 1.456700 -4.006300 0.832972 -6.902155 -2.516691 3.372531 -3.102764 -6.859559 16.728130 -25.897765 -1.539803 8.220800 -13.045100 4.524100 -77.280614 9.129333 34.974058 45.146326 -52.777043 -26.227805 0.813422 -1.413160 7.286648 -7.125000 0.000000 0.000000 77.290445 -6.862217 30.846529 -119.410266 55.272686 -85.453079 0.192538 -0.374332 -6.615803 7.125000 0.000000 0.000000 
8.938075 17.434459 19.730787 -173.775262 -69.186193 174.381528 0.387572 -3.776978 -11.406519 2.841262 12.487793 35.619933 -0.479543 4.622883 -7.842394 0.847500 -5.871700 -16.412700 0.656335 7.070454 -11.305582 -1.202438 -8.845555 23.499958 3.529692 -17.234204 -0.975589 -0.045400 1.374700 -3.780500 0.786512 -7.101622 -2.559433 3.294815 -3.183905 -7.245709 16.210305 -25.658196 -0.946650 7.912500 -12.935900 4.622300 -76.965233 8.379993 37.976077 45.768109 -53.026963 -26.671760 0.834908 -1.396941 7.021409 -7.125000 0.000000 0.000000 76.698921 -6.728056 28.474577 -122.418742 54.410175 -88.082808 0.196363 -0.366477 -4.660810 7.125000 0.000000 0.000000 
8.931261 17.471173 19.744212 -175.208040 -68.782999 176.071781 -0.163420 -3.799693 -11.356684 2.704817 12.371657 35.178466 -0.599997 5.035451 -8.025355 0.769200 -5.600200 -15.628700 0.106426 7.144124 -11.437369 -1.104976 -8.606152 22.784768 3.549558 -17.290698 -0.850870 -0.031200 1.139500 -3.132800 0.824974 -7.414771 -2.618886 3.912533 -3.310891 -7.086883 15.983303 -25.217401 -0.558830 7.906600 -12.722400 4.670100 -77.118335 7.577871 40.855485 46.524682 -53.374846 -27.228133 0.845484 -1.373064 6.814778 -7.125000 0.000000 0.000000 75.485481 -5.826242 26.297619 -124.195397 53.901956 -89.636232 0.206576 -0.348601 -4.123943 7.125000 0.000000 0.000000 
